<svg id="Layer_1" data-name="Layer 1" xmlns="http://www.w3.org/2000/svg" viewBox="0 0 174 124">
<defs>
<style>
.cls-1{fill:#54565a}
.cls-2{fill:#fd0}
</style>
</defs>
<path class="cls-1" d="M162.69 83a76 76 0 0 0-151.93 0zM162.24 99.93v-4.47h-6.18v-6.58h-6.63v6.58h-2.72v.12a20.4 20.4 0 0 0-3.11-.89 21 21 0 0 0-4.46-.47q-4.9 0-7.64 2a6 6 0 0 0-2.35 3 8 8 0 0 0-1.66-2.51c-1.69-1.7-4.22-2.54-7.57-2.54q-5.46 0-8.59 3a9.85 9.85 0 0 0-.77.82v-2.53h-6.18v-6.58h-6.63v6.58H95v1.47a5.12 5.12 0 0 0-1.11-1c-1.67-1.16-4.39-1.74-8.14-1.74a31.3 31.3 0 0 0-4.73.37c-1.58.26-2.71.47-3.41.66v5h.61c.54-.21 1.42-.5 2.66-.89a11.92 11.92 0 0 1 3.49-.57 10 10 0 0 1 4.11.65 2.4 2.4 0 0 1 1.4 2.37v.11q-2.93.17-5.64.51a16.42 16.42 0 0 0-4.55 1.18 6.75 6.75 0 0 0-2.86 2.26 4.76 4.76 0 0 0-.53 1V102q0-3.87-1.88-5.82a6.94 6.94 0 0 0-5.23-2 8.69 8.69 0 0 0-3.61.73 17.1 17.1 0 0 0-3.39 2.12v-2.27h-6.6v6.93A9.75 9.75 0 0 0 53 97.07q-2.94-2.92-8.34-2.93t-8.31 2.92a9.72 9.72 0 0 0-2.78 5.56c-.12-.14-.22-.3-.35-.43a11.15 11.15 0 0 0-4.91-2.77c-1.1-.33-2.13-.6-3.08-.79l-3-.59A10.26 10.26 0 0 1 19 97a2.06 2.06 0 0 1-1-1.64 1.67 1.67 0 0 1 .43-1.26 3 3 0 0 1 1.19-.83 6.64 6.64 0 0 1 1.67-.45 14.75 14.75 0 0 1 1.77-.12 15.21 15.21 0 0 1 5 .87 16.57 16.57 0 0 1 4.27 2.16h.76v-6.06A31.83 31.83 0 0 0 28 88.22a29.41 29.41 0 0 0-5.45-.51 14.68 14.68 0 0 0-8.75 2.41 6.66 6.66 0 0 0-3 6.18 7.78 7.78 0 0 0 1.88 4.7 11.3 11.3 0 0 0 5.26 3 27 27 0 0 0 3.33.81c1.18.21 2.3.43 3.36.67a5.81 5.81 0 0 1 2.33 1 2.1 2.1 0 0 1 .89 1.53 1.77 1.77 0 0 1-.42 1.46 3.92 3.92 0 0 1-1.29.82 6.08 6.08 0 0 1-1.7.37c-.71.07-1.27.11-1.71.11a16.77 16.77 0 0 1-5.35-.92 18.12 18.12 0 0 1-5.16-2.64h-.78v6.32a40.74 40.74 0 0 0 5.38 1.66 27.89 27.89 0 0 0 6.05.57c4 0 7.05-.84 9.24-2.51a7.67 7.67 0 0 0 2.35-2.81 9.41 9.41 0 0 0 1.89 2.69c2 1.95 4.75 2.93 8.33 2.93s6.35-1 8.32-2.93a9.53 9.53 0 0 0 2.58-4.61v6.91h6.63V100.8a9.17 9.17 0 0 1 2-.94 5.94 5.94 0 0 1 1.83-.3 5.19 5.19 0 0 1 2 .31 2.23 2.23 0 0 1 1.08 1 5.52 5.52 0 0 1 .44 1.83c.08.82.12 1.65.12 2.48v10.24h6.64V112a6 6 0 0 0 1.5 2.11 7 7 0 0 0 4.93 1.89 23.52 23.52 0 0 0 4.33-.51 16 16 0 0 0 2.79-.89v.85h6.55v-14a9.36 9.36 0 0 0-.11-1.44h1.44v9c0 2.53.62 4.32 1.88 5.37s3.17 1.56 5.75 1.56a22 22 0 0 0 2.92-.16 18.53 18.53 0 0 0 2.26-.42v-3a9.18 9.18 0 0 0 .94.93q3.32 2.71 9.5 2.71a22 22 0 0 0 4.39-.41 24.29 24.29 0 0 0 4-1.2 19.85 19.85 0 0 0 3.64 1.13 22.25 22.25 0 0 0 5 .52c3.32 0 5.92-.65 7.77-2a5.69 5.69 0 0 0 2.65-5.16 5.61 5.61 0 0 0-1.41-3.65 7.82 7.82 0 0 0-3.95-2.14c-.8-.19-1.59-.36-2.37-.49s-1.52-.26-2.2-.39a7.25 7.25 0 0 1-2.37-.77 1.37 1.37 0 0 1-.54-1.12c0-.54.32-1 1-1.25a7.19 7.19 0 0 1 2.68-.44 12.51 12.51 0 0 1 3.85.63 14.2 14.2 0 0 1 3.44 1.63h.57v-1h2.28v9q0 3.8 1.88 5.37c1.26 1 3.17 1.56 5.75 1.56a22 22 0 0 0 2.92-.16 18.53 18.53 0 0 0 2.26-.42v-4.51h-.55a7.3 7.3 0 0 1-2.51.63 3.86 3.86 0 0 1-1.9-.38 2.15 2.15 0 0 1-.91-1 4 4 0 0 1-.29-1.46v-8.59zM48.81 108.2a5.24 5.24 0 0 1-1 1.9 3.17 3.17 0 0 1-1.39 1 5.25 5.25 0 0 1-3.58 0 3.41 3.41 0 0 1-1.4-1 5 5 0 0 1-.92-2 12 12 0 0 1-.32-2.92 11.46 11.46 0 0 1 .4-3.18 5.21 5.21 0 0 1 1-2 3.29 3.29 0 0 1 1.4-1 5.23 5.23 0 0 1 1.7-.26 4.93 4.93 0 0 1 1.78.31 3.31 3.31 0 0 1 1.42 1.06 5.33 5.33 0 0 1 .91 2 11.91 11.91 0 0 1 .33 3 11.15 11.15 0 0 1-.33 3.09zm41.06 1.8a6.26 6.26 0 0 1-1.79 1.07 5.41 5.41 0 0 1-2 .4 7.3 7.3 0 0 1-1.83-.17 2.67 2.67 0 0 1-1-.55 1.55 1.55 0 0 1-.55-.77 3.76 3.76 0 0 1-.11-1 2.29 2.29 0 0 1 .52-1.57 3.26 3.26 0 0 1 1.51-.91A14.33 14.33 0 0 1 87 106c1-.12 2-.23 2.9-.3zm19 1.13a6 6 0 0 1-1.35.22 3.89 3.89 0 0 1-1.9-.38 2.08 2.08 0 0 1-.9-1 3.76 3.76 0 0 1-.3-1.46v-8.58h4.91a12.22 12.22 0 0 0-1.1 5.29 11 11 0 0 0 1.41 5.7c-.24.08-.49.15-.79.24zm7.38-11.9a4.86 4.86 0 0 1 3.14-1 4 4 0 0 1 3 1 4.62 4.62 0 0 1 1 3.12h-8.58a4.26 4.26 0 0 1 1.42-3.09zm20.75 8.55c.85.13 1.52.25 2 .36a7.52 7.52 0 0 1 2.12.65 1.25 1.25 0 0 1 .6 1.1 1.31 1.31 0 0 1-.88 1.27 7.31 7.31 0 0 1-2.87.43 12.6 12.6 0 0 1-2.81-.31 15.86 15.86 0 0 1-2.37-.72 12.25 12.25 0 0 1-1.89-.89c-.44-.27-.84-.52-1.18-.76h-.82a12.89 12.89 0 0 1-3.11 1.63 11.32 11.32 0 0 1-4.06.75 8.29 8.29 0 0 1-5-1.28 4.8 4.8 0 0 1-1.85-3.73H130v-1.8a5 5 0 0 0 .38.5 8.57 8.57 0 0 0 4.28 2.29 23.45 23.45 0 0 0 2.34.51z"/><path class="cls-2" d="M73.58 31.46h26.29a.29.29 0 0 0 .07-.57l-2.21-.51h-22c-.06 0-2.27.51-2.27.51a.28.28 0 0 0-.22.32.28.28 0 0 0 .34.25zM140.25 77.55v-.37l-.05-.51v-.31l-.05-.43a.29.29 0 0 0-.29-.25h-27c-.15-.52-.54-2.1-1.18-4.77h27.22a.29.29 0 0 0 .29-.29.17.17 0 0 0 0-.07L139 70a.3.3 0 0 0-.29-.22h-27.4c-.09-.39-1.16-4.89-1.31-5.5h26.76a.31.31 0 0 0 .24-.13.33.33 0 0 0 .05-.16.43.43 0 0 0 0-.11l-.2-.51a.28.28 0 0 0-.27-.18h-26.84c-.09-.39-1.15-4.9-1.29-5.51h25.27a.29.29 0 0 0 .25-.14.42.42 0 0 0 0-.15.23.23 0 0 0 0-.14l-.28-.51a.3.3 0 0 0-.26-.15h-25.24c-.09-.39-1.15-4.89-1.29-5.5h22.56a.29.29 0 0 0 .26-.16.31.31 0 0 0 0-.13.3.3 0 0 0-.06-.18l-.39-.51a.3.3 0 0 0-.23-.11h-22.4c-.09-.41-1-4.16-1-4.16a.3.3 0 0 0-.29-.23.29.29 0 0 0-.28.23s-.91 3.76-1 4.16H71.15c-.07-.34-1-4.91-1.1-5.51h53.51a.28.28 0 0 0 .27-.18.23.23 0 0 0 0-.11.3.3 0 0 0-.1-.21l-.55-.51a.27.27 0 0 0-.19-.08H69.83c-.09-.41-1-5-1.1-5.5h46.32a.29.29 0 0 0 .28-.21.22.22 0 0 0 0-.08.3.3 0 0 0-.14-.25l-.83-.51a.26.26 0 0 0-.15 0h-45.7l-.62-3.07a.28.28 0 0 0-.28-.24.3.3 0 0 0-.29.23s-.59 2.69-.68 3.08h-7.41a.24.24 0 0 0-.15 0l-.83.51a.3.3 0 0 0-.14.25.22.22 0 0 0 0 .08.29.29 0 0 0 .28.21h8c-.14.61-1.14 5.11-1.23 5.5H50.43a.32.32 0 0 0-.2.08l-.54.51a.3.3 0 0 0-.1.21.23.23 0 0 0 0 .11.28.28 0 0 0 .27.18h15c-.12.53-1.14 5.11-1.22 5.51H44.38a.3.3 0 0 0-.23.11l-.39.51a.3.3 0 0 0-.06.18.31.31 0 0 0 0 .13.29.29 0 0 0 .26.16h19.5c-.13.6-1.13 5.1-1.22 5.5H40a.3.3 0 0 0-.26.15l-.28.51a.23.23 0 0 0 0 .14.28.28 0 0 0 0 .15.29.29 0 0 0 .25.14H62c-.13.6-1.14 5.11-1.22 5.51H36.89a.28.28 0 0 0-.27.18l-.2.51a.43.43 0 0 0 0 .11.33.33 0 0 0 .05.16.31.31 0 0 0 .24.13h23.82c-.13.6-1.13 5.1-1.22 5.5H34.78a.29.29 0 0 0-.28.22l-.12.51a.17.17 0 0 0 0 .07.29.29 0 0 0 .29.29h24.4l-1 4.77h-24.4a.28.28 0 0 0-.29.25l-.08.74-.07.51v.35l-.06.59a.29.29 0 0 0 .07.22.28.28 0 0 0 .22.1h26.75a.3.3 0 0 0 .29-.23l.16-.71h12.93c0 .27.14.71.14.71a.3.3 0 0 0 .28.23H99.8a.3.3 0 0 0 .29-.23s.09-.44.14-.71h10.11c0 .27.14.7.14.7a.28.28 0 0 0 .28.24H140a.28.28 0 0 0 .22-.1.29.29 0 0 0 .07-.22zm-39.8-1.14c.13-.59 1.06-5.1 1.14-5.5H109l1.11 5.5zm-39.54 0c.14-.6 1.17-5.11 1.26-5.5h10.08c.08.41 1 4.91 1.11 5.5zm42.93-25.28c-.15.61-1.24 5.11-1.33 5.5H72.46c-.08-.41-1-4.91-1.1-5.5zM99 70.91c-.66 2.67-1.06 4.25-1.21 4.77H76.25c-.08-.41-.82-4.19-.94-4.77zm-23.9-1.09c-.09-.41-1-4.91-1.1-5.5h26.65c-.15.61-1.25 5.11-1.35 5.5zm27.15-12.1c-.15.61-1.24 5.12-1.34 5.51H73.78c-.08-.43-1.07-5.38-1.1-5.51zm2.54-1.09c.21-.83.4-1.53.56-2.09.16.57.34 1.27.54 2.09zm-1.54 6.6l1.27-5.51h1.63c.09.39 1.11 4.91 1.24 5.51zm-1.43 6.59c.13-.6 1.1-5.1 1.19-5.5h4.62c.08.4 1 4.9 1.15 5.5zM66.86 50c.09-.42.39-1.8.66-3.08.24 1.28.5 2.67.58 3.08zm-1.46 6.63c.14-.6 1.13-5.1 1.22-5.5h1.69c.08.41 1 4.91 1.08 5.5zm-1.48 6.6c.14-.61 1.15-5.11 1.24-5.51h4.45c.08.41 1 4.91 1.09 5.51zm-1.5 6.59l1.25-5.5h7.25l1.08 5.5z"/>
</svg>