<svg xmlns="http://www.w3.org/2000/svg" xml:space="preserve" viewBox="0 0 174 124">
  <path d="M162.24 99.93h-6.16v8.59c.004.501.103.996.29 1.46.188.422.507.773.91 1a3.862 3.862 0 0 0 1.9.38 7.3 7.3 0 0 0 2.51-.63h.55v4.51c-.744.187-1.499.327-2.26.42a22.09 22.09 0 0 1-2.92.16c-2.58 0-4.49-.56-5.75-1.56-1.253-1.047-1.88-2.837-1.88-5.37v-9h-2.28v1h-.57a14.18 14.18 0 0 0-3.44-1.63 12.5 12.5 0 0 0-3.85-.63 7.18 7.18 0 0 0-2.68.44c-.68.25-1 .71-1 1.25-.01.438.191.855.54 1.12.74.392 1.541.652 2.37.77.68.13 1.42.26 2.2.39.78.13 1.57.3 2.37.49a7.828 7.828 0 0 1 3.95 2.14 5.611 5.611 0 0 1 1.41 3.65 5.698 5.698 0 0 1-2.65 5.16c-1.85 1.35-4.45 2-7.77 2a22.238 22.238 0 0 1-5-.52 19.8 19.8 0 0 1-3.64-1.13 24.254 24.254 0 0 1-4 1.2 22.004 22.004 0 0 1-4.39.41c-4.12 0-7.287-.903-9.5-2.71a9.273 9.273 0 0 1-.94-.93v3c-.744.187-1.499.327-2.26.42a22.09 22.09 0 0 1-2.92.16c-2.58 0-4.49-.51-5.75-1.56-1.26-1.05-1.88-2.84-1.88-5.37v-9h-1.44c.074.476.11.958.11 1.44v14h-6.55v-.85a16.06 16.06 0 0 1-2.79.89 23.527 23.527 0 0 1-4.33.51 7 7 0 0 1-4.93-1.89 5.991 5.991 0 0 1-1.5-2.11v3.42h-6.64v-10.24c0-.83-.04-1.66-.12-2.48a5.53 5.53 0 0 0-.44-1.83 2.225 2.225 0 0 0-1.08-1 5.18 5.18 0 0 0-2-.31 5.96 5.96 0 0 0-1.83.3 9.177 9.177 0 0 0-2 .94v14.63h-6.63v-6.91a9.53 9.53 0 0 1-2.58 4.61c-1.97 1.93-4.74 2.93-8.32 2.93s-6.33-.98-8.33-2.93a9.401 9.401 0 0 1-1.89-2.69 7.666 7.666 0 0 1-2.35 2.81c-2.19 1.67-5.24 2.51-9.24 2.51-2.031.031-4.06-.16-6.05-.57a40.786 40.786 0 0 1-5.38-1.66v-6.32h.78a18.118 18.118 0 0 0 5.16 2.64c1.722.595 3.529.906 5.35.92.44 0 1-.04 1.71-.11a6.083 6.083 0 0 0 1.7-.37 3.92 3.92 0 0 0 1.29-.82 1.77 1.77 0 0 0 .42-1.46 2.103 2.103 0 0 0-.89-1.53 5.813 5.813 0 0 0-2.33-1 73.95 73.95 0 0 0-3.36-.67 27.02 27.02 0 0 1-3.33-.81 11.305 11.305 0 0 1-5.26-3 7.78 7.78 0 0 1-1.88-4.7 6.67 6.67 0 0 1 3-6.18 14.682 14.682 0 0 1 8.75-2.41c1.829 0 3.653.171 5.45.51 1.734.341 3.437.826 5.09 1.45v6.06h-.76a16.577 16.577 0 0 0-4.27-2.16 15.209 15.209 0 0 0-5-.87c-.592.004-1.183.045-1.77.12a6.669 6.669 0 0 0-1.67.45c-.459.175-.867.46-1.19.83a1.671 1.671 0 0 0-.43 1.26A2.06 2.06 0 0 0 19 97c1.011.524 2.103.875 3.23 1.04l3 .59c.95.19 1.98.46 3.08.79a11.14 11.14 0 0 1 4.91 2.77c.13.13.23.29.35.43a9.723 9.723 0 0 1 2.78-5.56c1.94-1.953 4.71-2.927 8.31-2.92 3.6.007 6.38.983 8.34 2.93a9.746 9.746 0 0 1 2.59 4.62v-6.93h6.6v2.27a17.1 17.1 0 0 1 3.39-2.12 8.702 8.702 0 0 1 3.61-.73 6.943 6.943 0 0 1 5.23 2c1.253 1.3 1.88 3.24 1.88 5.82v4.84c.136-.353.314-.689.53-1a6.757 6.757 0 0 1 2.86-2.26 16.401 16.401 0 0 1 4.55-1.18 84.378 84.378 0 0 1 5.64-.51v-.11a2.404 2.404 0 0 0-1.4-2.37 10.007 10.007 0 0 0-4.11-.65 11.925 11.925 0 0 0-3.49.57c-1.24.39-2.12.68-2.66.89h-.61v-5c.7-.19 1.83-.4 3.41-.66a31.211 31.211 0 0 1 4.73-.37c3.75 0 6.47.58 8.14 1.74.417.277.791.614 1.11 1v-1.47h2.75v-6.58h6.63v6.58h6.18v2.53c.241-.288.498-.562.77-.82 2.087-2 4.95-3 8.59-3 3.35 0 5.88.84 7.57 2.54a8.01 8.01 0 0 1 1.66 2.51 5.999 5.999 0 0 1 2.35-3c1.827-1.333 4.373-2 7.64-2a21.03 21.03 0 0 1 4.46.47 20.33 20.33 0 0 1 3.11.89v-.12h2.72v-6.58h6.63v6.58h6.18v4.47ZM89.87 110l.03-4.3c-.9.07-1.9.18-2.9.3-.806.099-1.602.266-2.38.5-.577.159-1.1.474-1.51.91-.363.44-.548 1-.52 1.57-.008.337.029.673.11 1 .099.308.291.577.55.77.29.253.631.441 1 .55a7.26 7.26 0 0 0 1.83.17 5.401 5.401 0 0 0 2-.4 6.273 6.273 0 0 0 1.79-1.07Zm-41.06-1.8c.254-1.01.365-2.05.33-3.09a11.884 11.884 0 0 0-.33-3 5.323 5.323 0 0 0-.91-2 3.309 3.309 0 0 0-1.42-1.06 4.937 4.937 0 0 0-1.78-.31A5.218 5.218 0 0 0 43 99a3.287 3.287 0 0 0-1.4 1 5.215 5.215 0 0 0-1 2 11.46 11.46 0 0 0-.4 3.18 12.01 12.01 0 0 0 .32 2.92 5 5 0 0 0 .92 2c.373.447.856.792 1.4 1a5.255 5.255 0 0 0 3.58 0 3.173 3.173 0 0 0 1.39-1 5.245 5.245 0 0 0 1-1.9Zm60.06 2.93-.02.03c.3-.09.55-.16.79-.24a11 11 0 0 1-1.41-5.7 12.212 12.212 0 0 1 1.1-5.29h-4.91v8.58c.002.502.104.998.3 1.46.181.424.498.776.9 1a3.885 3.885 0 0 0 1.9.38c.457-.022.91-.095 1.35-.22Zm28.13-3.35c-.788-.13-1.569-.3-2.34-.51a8.571 8.571 0 0 1-4.28-2.29 5.101 5.101 0 0 1-.38-.5v1.8h-15.12a4.803 4.803 0 0 0 1.85 3.73 8.291 8.291 0 0 0 5 1.28 11.315 11.315 0 0 0 4.06-.75 12.874 12.874 0 0 0 3.11-1.63h.82c.34.24.74.49 1.18.76.604.35 1.236.648 1.89.89.77.301 1.562.542 2.37.72a12.65 12.65 0 0 0 2.81.31 7.301 7.301 0 0 0 2.87-.43c.537-.186.894-.702.88-1.27a1.252 1.252 0 0 0-.6-1.1 7.54 7.54 0 0 0-2.12-.65c-.48-.11-1.15-.23-2-.36Zm-20.75-8.55-.02.03a4.264 4.264 0 0 0-1.42 3.09h8.58a4.622 4.622 0 0 0-1-3.12 4.001 4.001 0 0 0-3-1 4.856 4.856 0 0 0-3.14 1ZM162.69 83c-1.239-40.803-35.143-73.694-75.965-73.694S11.999 42.197 10.76 83h151.93Z" style="fill:#54565a;"/>
  <path d="M73.58 31.46h26.29a.292.292 0 0 0 .285-.29.291.291 0 0 0-.215-.28l-2.21-.51h-22c-.06 0-2.27.51-2.27.51a.28.28 0 0 0-.22.32.281.281 0 0 0 .34.25Zm66.67 46.09v-.37l-.05-.51v-.31l-.05-.43a.291.291 0 0 0-.29-.25h-27c-.15-.52-.54-2.1-1.18-4.77h27.22c.159 0 .29-.131.29-.29a.165.165 0 0 0 0-.07L139 70a.3.3 0 0 0-.29-.22h-27.4c-.09-.39-1.16-4.89-1.31-5.5h26.76a.311.311 0 0 0 .24-.13.335.335 0 0 0 .05-.16.405.405 0 0 0 0-.11l-.2-.51a.28.28 0 0 0-.27-.18h-26.84c-.09-.39-1.15-4.9-1.29-5.51h25.27a.29.29 0 0 0 .25-.14.42.42 0 0 0 0-.15.223.223 0 0 0 0-.14l-.28-.51a.3.3 0 0 0-.26-.15h-25.24c-.09-.39-1.15-4.89-1.29-5.5h22.56a.29.29 0 0 0 .26-.16.316.316 0 0 0 0-.13.3.3 0 0 0-.06-.18l-.39-.51a.3.3 0 0 0-.23-.11h-22.4c-.09-.41-1-4.16-1-4.16a.3.3 0 0 0-.29-.23.292.292 0 0 0-.28.23c-.028.132-.91 3.76-1 4.16H71.15c-.07-.34-1-4.91-1.1-5.51h53.51a.28.28 0 0 0 .27-.18.227.227 0 0 0 0-.11.302.302 0 0 0-.1-.21l-.55-.51a.267.267 0 0 0-.19-.08H69.83c-.09-.41-1-5-1.1-5.5h46.32a.291.291 0 0 0 .28-.21.215.215 0 0 0 0-.08.299.299 0 0 0-.14-.25l-.83-.51a.256.256 0 0 0-.15 0h-45.7l-.62-3.07a.281.281 0 0 0-.28-.24.3.3 0 0 0-.29.23c-.032.134-.59 2.69-.68 3.08h-7.41a.24.24 0 0 0-.15 0l-.83.51a.299.299 0 0 0-.14.25.215.215 0 0 0 0 .08.291.291 0 0 0 .28.21h8c-.14.61-1.14 5.11-1.23 5.5H50.43a.32.32 0 0 0-.2.08l-.54.51a.302.302 0 0 0-.1.21.227.227 0 0 0 0 .11.28.28 0 0 0 .27.18h15c-.12.53-1.14 5.11-1.22 5.51H44.38a.3.3 0 0 0-.23.11l-.39.51a.3.3 0 0 0-.06.18.316.316 0 0 0 0 .13.29.29 0 0 0 .26.16h19.5c-.13.6-1.13 5.1-1.22 5.5H40a.3.3 0 0 0-.26.15l-.28.51a.223.223 0 0 0 0 .14.273.273 0 0 0 0 .15.29.29 0 0 0 .25.14H62c-.13.6-1.14 5.11-1.22 5.51H36.89a.28.28 0 0 0-.27.18l-.2.51a.405.405 0 0 0 0 .11c.003.057.02.112.05.16a.311.311 0 0 0 .24.13h23.82c-.13.6-1.13 5.1-1.22 5.5H34.78a.292.292 0 0 0-.28.22l-.12.51a.165.165 0 0 0 0 .07c0 .159.131.29.29.29h24.4l-1 4.77h-24.4a.281.281 0 0 0-.29.25l-.08.74-.07.51v.35l-.06.59c-.008.08.017.16.07.22a.278.278 0 0 0 .22.1h26.75a.3.3 0 0 0 .29-.23l.16-.71h12.93c0 .27.14.71.14.71a.3.3 0 0 0 .28.23H99.8a.3.3 0 0 0 .29-.23c.032-.134.09-.44.14-.71h10.11c0 .27.14.7.14.7.02.138.14.241.28.24H140a.278.278 0 0 0 .22-.1.289.289 0 0 0 .07-.22l-.04-.53Zm-39.8-1.14c.13-.59 1.06-5.1 1.14-5.5H109l1.11 5.5h-9.66Zm-39.54 0c.14-.6 1.17-5.11 1.26-5.5h10.08c.08.41 1 4.91 1.11 5.5H60.91Zm42.93-25.28c-.15.61-1.24 5.11-1.33 5.5H72.46c-.08-.41-1-4.91-1.1-5.5h32.48ZM99 70.91c-.66 2.67-1.06 4.25-1.21 4.77H76.25c-.08-.41-.82-4.19-.94-4.77H99Zm-23.9-1.09c-.09-.41-1-4.91-1.1-5.5h26.65c-.15.61-1.25 5.11-1.35 5.5H75.1Zm27.15-12.1c-.15.61-1.24 5.12-1.34 5.51H73.78c-.08-.43-1.07-5.38-1.1-5.51h29.57Zm2.54-1.09c.21-.83.4-1.53.56-2.09.16.57.34 1.27.54 2.09h-1.1Zm-1.54 6.6 1.27-5.51h1.63c.09.39 1.11 4.91 1.24 5.51h-4.14Zm-1.43 6.59c.13-.6 1.1-5.1 1.19-5.5h4.62c.08.4 1 4.9 1.15 5.5h-6.96ZM66.86 50c.09-.42.39-1.8.66-3.08.24 1.28.5 2.67.58 3.08h-1.24Zm-1.46 6.63c.14-.6 1.13-5.1 1.22-5.5h1.69c.08.41 1 4.91 1.08 5.5H65.4Zm-1.48 6.6c.14-.61 1.15-5.11 1.24-5.51h4.45c.08.41 1 4.91 1.09 5.51h-6.78Zm-1.5 6.59 1.25-5.5h7.25l1.08 5.5h-9.58Z" style="fill:#fd0;fill-rule:nonzero"/>
</svg>
