<svg viewBox="0 0 174 124" version="1.1" xmlns="http://www.w3.org/2000/svg" xmlns:xlink="http://www.w3.org/1999/xlink" xml:space="preserve" xmlns:serif="http://www.serif.com/">
    <g id="logo">
        <path id="bg" d="M162.69,83C161.451,42.197 127.547,9.306 86.725,9.306C45.903,9.306 11.999,42.197 10.76,83L162.69,83Z" style="fill:rgb(84,86,90);fill-rule:nonzero;"/>
        <path id="pulse" d="M73.58,31.46L99.87,31.46C100.027,31.457 100.155,31.327 100.155,31.17C100.155,31.039 100.066,30.924 99.94,30.89L97.73,30.38L75.73,30.38C75.67,30.38 73.46,30.89 73.46,30.89C73.313,30.92 73.216,31.062 73.24,31.21C73.252,31.354 73.374,31.467 73.519,31.467C73.54,31.467 73.56,31.464 73.58,31.46ZM140.25,77.55L140.25,77.18L140.2,76.67L140.2,76.36L140.15,75.93C140.13,75.786 140.005,75.679 139.86,75.68L112.86,75.68C112.71,75.16 112.32,73.58 111.68,70.91L138.9,70.91C139.059,70.91 139.19,70.779 139.19,70.62C139.195,70.597 139.195,70.573 139.19,70.55L139,70C138.964,69.87 138.845,69.78 138.71,69.78L111.31,69.78C111.22,69.39 110.15,64.89 110,64.28L136.76,64.28C136.856,64.276 136.944,64.228 137,64.15C137.03,64.102 137.047,64.047 137.05,63.99C137.055,63.953 137.055,63.917 137.05,63.88L136.85,63.37C136.808,63.259 136.699,63.186 136.58,63.19L109.74,63.19C109.65,62.8 108.59,58.29 108.45,57.68L133.72,57.68C133.822,57.681 133.917,57.627 133.97,57.54C133.979,57.49 133.979,57.44 133.97,57.39C133.985,57.344 133.985,57.296 133.97,57.25L133.69,56.74C133.636,56.647 133.537,56.59 133.43,56.59L108.19,56.59C108.1,56.2 107.04,51.7 106.9,51.09L129.46,51.09C129.57,51.09 129.671,51.028 129.72,50.93C129.729,50.887 129.729,50.843 129.72,50.8C129.72,50.735 129.699,50.672 129.66,50.62L129.27,50.11C129.214,50.041 129.129,50.001 129.04,50L106.64,50C106.55,49.59 105.64,45.84 105.64,45.84C105.608,45.706 105.488,45.611 105.35,45.61C105.215,45.612 105.098,45.708 105.07,45.84C105.042,45.972 104.16,49.6 104.07,50L71.15,50C71.08,49.66 70.15,45.09 70.05,44.49L123.56,44.49C123.679,44.494 123.788,44.421 123.83,44.31C123.839,44.274 123.839,44.236 123.83,44.2C123.826,44.119 123.79,44.044 123.73,43.99L123.18,43.48C123.13,43.429 123.061,43.4 122.99,43.4L69.83,43.4C69.74,42.99 68.83,38.4 68.73,37.9L115.05,37.9C115.179,37.901 115.294,37.814 115.33,37.69C115.335,37.664 115.335,37.636 115.33,37.61C115.329,37.508 115.276,37.414 115.19,37.36L114.36,36.85C114.311,36.835 114.259,36.835 114.21,36.85L68.51,36.85L67.89,33.78C67.87,33.642 67.75,33.539 67.61,33.54C67.472,33.541 67.352,33.636 67.32,33.77C67.288,33.904 66.73,36.46 66.64,36.85L59.23,36.85C59.181,36.834 59.129,36.834 59.08,36.85L58.25,37.36C58.164,37.414 58.111,37.508 58.11,37.61C58.105,37.636 58.105,37.664 58.11,37.69C58.146,37.814 58.261,37.901 58.39,37.9L66.39,37.9C66.25,38.51 65.25,43.01 65.16,43.4L50.43,43.4C50.356,43.403 50.285,43.431 50.23,43.48L49.69,43.99C49.63,44.044 49.594,44.119 49.59,44.2C49.581,44.236 49.581,44.274 49.59,44.31C49.632,44.421 49.741,44.494 49.86,44.49L64.86,44.49C64.74,45.02 63.72,49.6 63.64,50L44.38,50C44.291,50.001 44.206,50.041 44.15,50.11L43.76,50.62C43.721,50.672 43.7,50.735 43.7,50.8C43.691,50.843 43.691,50.887 43.7,50.93C43.749,51.028 43.85,51.09 43.96,51.09L63.46,51.09C63.33,51.69 62.33,56.19 62.24,56.59L40,56.59C39.893,56.59 39.794,56.647 39.74,56.74L39.46,57.25C39.445,57.296 39.445,57.344 39.46,57.39C39.446,57.439 39.446,57.491 39.46,57.54C39.513,57.627 39.608,57.681 39.71,57.68L62,57.68C61.87,58.28 60.86,62.79 60.78,63.19L36.89,63.19C36.771,63.186 36.662,63.259 36.62,63.37L36.42,63.88C36.415,63.917 36.415,63.953 36.42,63.99C36.423,64.047 36.44,64.102 36.47,64.15C36.526,64.228 36.614,64.276 36.71,64.28L60.53,64.28C60.4,64.88 59.4,69.38 59.31,69.78L34.78,69.78C34.648,69.781 34.532,69.872 34.5,70L34.38,70.51C34.375,70.533 34.375,70.557 34.38,70.58C34.38,70.739 34.511,70.87 34.67,70.87L59.07,70.87L58.07,75.64L33.67,75.64C33.523,75.634 33.396,75.744 33.38,75.89L33.3,76.63L33.23,77.14L33.23,77.49L33.17,78.08C33.162,78.16 33.187,78.24 33.24,78.3C33.294,78.365 33.375,78.402 33.46,78.4L60.21,78.4C60.348,78.399 60.468,78.304 60.5,78.17L60.66,77.46L73.59,77.46C73.59,77.73 73.73,78.17 73.73,78.17C73.761,78.3 73.876,78.395 74.01,78.4L99.8,78.4C99.938,78.399 100.058,78.304 100.09,78.17C100.122,78.036 100.18,77.73 100.23,77.46L110.34,77.46C110.34,77.73 110.48,78.16 110.48,78.16C110.5,78.298 110.62,78.401 110.76,78.4L140,78.4C140.085,78.402 140.166,78.365 140.22,78.3C140.273,78.24 140.298,78.16 140.29,78.08L140.25,77.55ZM100.45,76.41C100.58,75.82 101.51,71.31 101.59,70.91L109,70.91L110.11,76.41L100.45,76.41ZM60.91,76.41C61.05,75.81 62.08,71.3 62.17,70.91L72.25,70.91C72.33,71.32 73.25,75.82 73.36,76.41L60.91,76.41ZM103.84,51.13C103.69,51.74 102.6,56.24 102.51,56.63L72.46,56.63C72.38,56.22 71.46,51.72 71.36,51.13L103.84,51.13ZM99,70.91C98.34,73.58 97.94,75.16 97.79,75.68L76.25,75.68C76.17,75.27 75.43,71.49 75.31,70.91L99,70.91ZM75.1,69.82C75.01,69.41 74.1,64.91 74,64.32L100.65,64.32C100.5,64.93 99.4,69.43 99.3,69.82L75.1,69.82ZM102.25,57.72C102.1,58.33 101.01,62.84 100.91,63.23L73.78,63.23C73.7,62.8 72.71,57.85 72.68,57.72L102.25,57.72ZM104.79,56.63C105,55.8 105.19,55.1 105.35,54.54C105.51,55.11 105.69,55.81 105.89,56.63L104.79,56.63ZM103.25,63.23L104.52,57.72L106.15,57.72C106.24,58.11 107.26,62.63 107.39,63.23L103.25,63.23ZM101.82,69.82C101.95,69.22 102.92,64.72 103.01,64.32L107.63,64.32C107.71,64.72 108.63,69.22 108.78,69.82L101.82,69.82ZM66.86,50C66.95,49.58 67.25,48.2 67.52,46.92C67.76,48.2 68.02,49.59 68.1,50L66.86,50ZM65.4,56.63C65.54,56.03 66.53,51.53 66.62,51.13L68.31,51.13C68.39,51.54 69.31,56.04 69.39,56.63L65.4,56.63ZM63.92,63.23C64.06,62.62 65.07,58.12 65.16,57.72L69.61,57.72C69.69,58.13 70.61,62.63 70.7,63.23L63.92,63.23ZM62.42,69.82L63.67,64.32L70.92,64.32L72,69.82L62.42,69.82Z" style="fill:rgb(255,221,0);fill-rule:nonzero;"/>
    </g>
    <path id="sonatest" d="M162.24,99.93L156.08,99.93L156.08,108.52C156.084,109.021 156.183,109.516 156.37,109.98C156.558,110.402 156.877,110.753 157.28,110.98C157.871,111.266 158.525,111.397 159.18,111.36C160.047,111.301 160.898,111.088 161.69,110.73L162.24,110.73L162.24,115.24C161.496,115.427 160.741,115.567 159.98,115.66C159.011,115.778 158.036,115.831 157.06,115.82C154.48,115.82 152.57,115.26 151.31,114.26C150.057,113.213 149.43,111.423 149.43,108.89L149.43,99.89L147.15,99.89L147.15,100.89L146.58,100.89C145.512,100.195 144.355,99.646 143.14,99.26C141.898,98.85 140.598,98.637 139.29,98.63C138.377,98.605 137.467,98.754 136.61,99.07C135.93,99.32 135.61,99.78 135.61,100.32C135.6,100.758 135.801,101.175 136.15,101.44C136.89,101.832 137.691,102.092 138.52,102.21C139.2,102.34 139.94,102.47 140.72,102.6C141.5,102.73 142.29,102.9 143.09,103.09C144.587,103.402 145.961,104.146 147.04,105.23C147.933,106.238 148.433,107.534 148.45,108.88C148.575,110.952 147.557,112.935 145.8,114.04C143.95,115.39 141.35,116.04 138.03,116.04C136.349,116.056 134.672,115.882 133.03,115.52C131.783,115.261 130.564,114.883 129.39,114.39C128.094,114.904 126.755,115.306 125.39,115.59C123.944,115.873 122.473,116.011 121,116C116.88,116 113.713,115.097 111.5,113.29C111.165,113.003 110.851,112.692 110.56,112.36L110.56,115.36C109.816,115.547 109.061,115.687 108.3,115.78C107.331,115.898 106.356,115.951 105.38,115.94C102.8,115.94 100.89,115.43 99.63,114.38C98.37,113.33 97.75,111.54 97.75,109.01L97.75,100.01L96.31,100.01C96.384,100.486 96.42,100.968 96.42,101.45L96.42,115.45L89.87,115.45L89.87,114.6C88.969,114.981 88.035,115.279 87.08,115.49C85.656,115.794 84.206,115.964 82.75,116C80.924,116.038 79.153,115.359 77.82,114.11C77.172,113.524 76.66,112.804 76.32,112L76.32,115.42L69.68,115.42L69.68,105.18C69.68,104.35 69.64,103.52 69.56,102.7C69.519,102.069 69.37,101.45 69.12,100.87C68.884,100.424 68.503,100.071 68.04,99.87C67.4,99.636 66.721,99.531 66.04,99.56C65.418,99.564 64.801,99.665 64.21,99.86C63.508,100.092 62.836,100.407 62.21,100.8L62.21,115.43L55.58,115.43L55.58,108.52C55.172,110.269 54.277,111.867 53,113.13C51.03,115.06 48.26,116.06 44.68,116.06C41.1,116.06 38.35,115.08 36.35,113.13C35.567,112.351 34.927,111.441 34.46,110.44C33.915,111.553 33.109,112.517 32.11,113.25C29.92,114.92 26.87,115.76 22.87,115.76C20.839,115.791 18.81,115.6 16.82,115.19C14.991,114.761 13.193,114.207 11.44,113.53L11.44,107.21L12.22,107.21C13.787,108.361 15.53,109.253 17.38,109.85C19.102,110.445 20.909,110.756 22.73,110.77C23.17,110.77 23.73,110.73 24.44,110.66C25.021,110.619 25.594,110.494 26.14,110.29C26.62,110.104 27.058,109.825 27.43,109.47C27.782,109.071 27.937,108.535 27.85,108.01C27.793,107.394 27.467,106.834 26.96,106.48C26.266,105.979 25.471,105.638 24.63,105.48C23.57,105.24 22.45,105.02 21.27,104.81C20.144,104.611 19.032,104.34 17.94,104C15.947,103.497 14.128,102.46 12.68,101C11.547,99.687 10.885,98.032 10.8,96.3C10.579,93.847 11.736,91.464 13.8,90.12C16.388,88.413 19.452,87.569 22.55,87.71C24.379,87.71 26.203,87.881 28,88.22C29.734,88.561 31.437,89.046 33.09,89.67L33.09,95.73L32.33,95.73C31.019,94.807 29.58,94.08 28.06,93.57C26.454,93.002 24.764,92.708 23.06,92.7C22.468,92.704 21.877,92.745 21.29,92.82C20.716,92.897 20.155,93.048 19.62,93.27C19.161,93.445 18.753,93.73 18.43,94.1C18.118,94.442 17.963,94.899 18,95.36C18.042,96.038 18.417,96.652 19,97C20.011,97.524 21.103,97.875 22.23,98.04L25.23,98.63C26.18,98.82 27.21,99.09 28.31,99.42C30.157,99.907 31.848,100.861 33.22,102.19C33.35,102.32 33.45,102.48 33.57,102.62C33.863,100.513 34.84,98.559 36.35,97.06C38.29,95.107 41.06,94.133 44.66,94.14C48.26,94.147 51.04,95.123 53,97.07C54.273,98.341 55.17,99.941 55.59,101.69L55.59,94.76L62.19,94.76L62.19,97.03C63.233,96.193 64.371,95.482 65.58,94.91C66.717,94.412 67.948,94.163 69.19,94.18C71.136,94.083 73.036,94.809 74.42,96.18C75.673,97.48 76.3,99.42 76.3,102L76.3,106.84C76.436,106.487 76.614,106.151 76.83,105.84C77.558,104.839 78.548,104.057 79.69,103.58C81.142,102.97 82.675,102.573 84.24,102.4C86.047,102.173 87.927,102.003 89.88,101.89L89.88,101.78C89.958,100.777 89.396,99.826 88.48,99.41C87.171,98.908 85.77,98.686 84.37,98.76C83.185,98.775 82.009,98.968 80.88,99.33C79.64,99.72 78.76,100.01 78.22,100.22L77.61,100.22L77.61,95.22C78.31,95.03 79.44,94.82 81.02,94.56C82.585,94.317 84.166,94.193 85.75,94.19C89.5,94.19 92.22,94.77 93.89,95.93C94.307,96.207 94.681,96.544 95,96.93L95,95.46L97.75,95.46L97.75,88.88L104.38,88.88L104.38,95.46L110.56,95.46L110.56,97.99C110.801,97.702 111.058,97.428 111.33,97.17C113.417,95.17 116.28,94.17 119.92,94.17C123.27,94.17 125.8,95.01 127.49,96.71C128.197,97.434 128.76,98.286 129.15,99.22C129.586,97.991 130.412,96.938 131.5,96.22C133.327,94.887 135.873,94.22 139.14,94.22C140.639,94.217 142.134,94.375 143.6,94.69C144.659,94.904 145.699,95.201 146.71,95.58L146.71,95.46L149.43,95.46L149.43,88.88L156.06,88.88L156.06,95.46L162.24,95.46L162.24,99.93ZM89.87,110L89.9,105.7C89,105.77 88,105.88 87,106C86.194,106.099 85.398,106.266 84.62,106.5C84.043,106.659 83.52,106.974 83.11,107.41C82.747,107.85 82.562,108.41 82.59,108.98C82.582,109.317 82.619,109.653 82.7,109.98C82.799,110.288 82.991,110.557 83.25,110.75C83.54,111.003 83.881,111.191 84.25,111.3C84.85,111.434 85.465,111.491 86.08,111.47C86.766,111.465 87.445,111.329 88.08,111.07C88.732,110.816 89.337,110.454 89.87,110ZM48.81,108.2C49.064,107.19 49.175,106.15 49.14,105.11C49.158,104.1 49.047,103.092 48.81,102.11C48.649,101.387 48.339,100.706 47.9,100.11C47.532,99.634 47.041,99.268 46.48,99.05C45.911,98.838 45.307,98.733 44.7,98.74C44.123,98.732 43.548,98.82 43,99C42.453,99.203 41.97,99.548 41.6,100C41.126,100.586 40.785,101.269 40.6,102C40.318,103.036 40.184,104.107 40.2,105.18C40.187,106.163 40.294,107.143 40.52,108.1C40.674,108.827 40.989,109.51 41.44,110.1C41.813,110.547 42.296,110.892 42.84,111.1C43.996,111.519 45.264,111.519 46.42,111.1C46.966,110.901 47.447,110.554 47.81,110.1C48.271,109.542 48.611,108.896 48.81,108.2ZM108.87,111.13L108.85,111.16C109.15,111.07 109.4,111 109.64,110.92C108.662,109.183 108.175,107.212 108.23,105.22C108.197,103.397 108.573,101.589 109.33,99.93L104.42,99.93L104.42,108.51C104.422,109.012 104.524,109.508 104.72,109.97C104.901,110.394 105.218,110.746 105.62,110.97C106.211,111.255 106.865,111.386 107.52,111.35C107.977,111.328 108.43,111.255 108.87,111.13ZM137,107.78C136.212,107.65 135.431,107.48 134.66,107.27C133.043,106.935 131.556,106.14 130.38,104.98C130.243,104.821 130.116,104.654 130,104.48L130,106.28L114.88,106.28C114.897,107.739 115.579,109.113 116.73,110.01C118.218,110.958 119.97,111.406 121.73,111.29C123.118,111.291 124.494,111.037 125.79,110.54C126.896,110.141 127.943,109.593 128.9,108.91L129.72,108.91C130.06,109.15 130.46,109.4 130.9,109.67C131.504,110.02 132.136,110.318 132.79,110.56C133.56,110.861 134.352,111.102 135.16,111.28C136.082,111.488 137.025,111.592 137.97,111.59C138.946,111.64 139.922,111.494 140.84,111.16C141.377,110.974 141.734,110.458 141.72,109.89C141.731,109.443 141.502,109.022 141.12,108.79C140.449,108.47 139.735,108.251 139,108.14C138.52,108.03 137.85,107.91 137,107.78ZM116.25,99.23L116.23,99.26C115.349,100.048 114.834,101.168 114.81,102.35L123.39,102.35C123.449,101.223 123.093,100.113 122.39,99.23C121.57,98.499 120.484,98.137 119.39,98.23C118.259,98.187 117.148,98.541 116.25,99.23Z" style="fill:rgb(84,86,90);fill-rule:nonzero;"/>
</svg>
